<?xml version="1.0" encoding="UTF-8"?>
<!DOCTYPE svg PUBLIC "-//W3C//DTD SVG 1.1//EN" "http://www.w3.org/Graphics/SVG/1.1/DTD/svg11.dtd">
<svg xmlns="http://www.w3.org/2000/svg" version="1.1" width="282px" height="280px" style="shape-rendering:geometricPrecision; text-rendering:geometricPrecision; image-rendering:optimizeQuality; fill-rule:evenodd; clip-rule:evenodd" xmlns:xlink="http://www.w3.org/1999/xlink">
<g><path style="opacity:1" fill="#fa2e02" d="M 162.5,4.5 C 163.5,4.5 164.5,4.5 165.5,4.5C 165.611,5.11742 165.944,5.61742 166.5,6C 168.81,6.49665 171.143,6.66331 173.5,6.5C 173.833,6.5 174.167,6.5 174.5,6.5C 177.77,9.44248 181.77,10.7758 186.5,10.5C 186.833,10.5 187.167,10.5 187.5,10.5C 188.09,12.0972 189.09,13.4305 190.5,14.5C 198.021,18.109 205.687,21.109 213.5,23.5C 213.833,23.5 214.167,23.5 214.5,23.5C 216.883,28.8806 220.883,32.5473 226.5,34.5C 227.833,34.8333 229.167,35.1667 230.5,35.5C 232.167,36.8333 233.833,38.1667 235.5,39.5C 235.5,41.5 236.5,42.5 238.5,42.5C 238.338,44.5273 238.505,46.5273 239,48.5C 240,47.1667 241,47.1667 242,48.5C 242.333,49.8333 242.667,51.1667 243,52.5C 243.414,52.0426 243.914,51.7093 244.5,51.5C 246.805,54.3233 248.472,57.49 249.5,61C 251.488,61.9383 253.488,62.7717 255.5,63.5C 255.427,65.0269 256.094,66.0269 257.5,66.5C 257.773,68.451 257.107,69.951 255.5,71C 261.015,72.8583 263.348,76.6916 262.5,82.5C 263.675,82.281 264.675,82.6143 265.5,83.5C 269.538,92.4052 273.204,101.405 276.5,110.5C 277.051,122.044 278.051,133.544 279.5,145C 278.1,153.772 277.433,162.605 277.5,171.5C 277.5,171.833 277.5,172.167 277.5,172.5C 276.011,174.116 275.011,176.116 274.5,178.5C 273.52,181.086 273.187,183.753 273.5,186.5C 273.567,187.959 273.234,189.292 272.5,190.5C 271.504,190.414 270.671,190.748 270,191.5C 269.755,193.663 268.755,195.33 267,196.5C 266.503,198.81 266.337,201.143 266.5,203.5C 265.5,203.5 264.5,203.5 263.5,203.5C 263.167,206.167 262.833,208.833 262.5,211.5C 261.518,210.859 260.518,210.193 259.5,209.5C 259.762,211.132 258.762,212.299 256.5,213C 257.059,213.725 257.392,214.558 257.5,215.5C 256.106,217.646 255.44,219.979 255.5,222.5C 255.167,223.167 254.833,223.833 254.5,224.5C 253.292,223.766 251.959,223.433 250.5,223.5C 250.5,225.167 250.5,226.833 250.5,228.5C 248.856,228.714 247.356,228.38 246,227.5C 245.308,228.025 244.808,228.692 244.5,229.5C 245.428,230.768 245.595,232.101 245,233.5C 242.051,232.066 239.218,232.232 236.5,234C 237.328,234.915 238.328,235.581 239.5,236C 237.808,237.401 237.141,239.234 237.5,241.5C 236.5,241.5 235.5,241.5 234.5,241.5C 234.5,243.167 234.5,244.833 234.5,246.5C 232.856,246.714 231.356,246.38 230,245.5C 229.383,246.449 229.549,247.282 230.5,248C 229.551,248.617 228.718,248.451 228,247.5C 227.51,248.793 227.343,250.127 227.5,251.5C 225.549,251.227 224.049,251.893 223,253.5C 222.333,252.833 221.667,252.167 221,251.5C 219.991,253.025 219.491,254.692 219.5,256.5C 217.409,256.682 215.409,256.348 213.5,255.5C 212.429,257.325 213.096,258.492 215.5,259C 214.207,259.49 212.873,259.657 211.5,259.5C 211.5,260.5 211.5,261.5 211.5,262.5C 209.833,262.5 208.167,262.5 206.5,262.5C 206.5,263.833 206.5,265.167 206.5,266.5C 206.158,267.338 205.492,267.672 204.5,267.5C 202.801,267.34 201.134,267.506 199.5,268C 198.748,268.671 198.414,269.504 198.5,270.5C 197.791,271.404 196.791,271.737 195.5,271.5C 193.219,271.077 191.552,271.744 190.5,273.5C 188.051,274.057 185.718,274.057 183.5,273.5C 184.524,272.148 185.524,270.815 186.5,269.5C 189.195,266.474 191.862,263.474 194.5,260.5C 197.562,259.732 199.228,257.732 199.5,254.5C 201.867,253.921 203.7,252.588 205,250.5C 207.015,247.469 208.181,244.136 208.5,240.5C 211.375,238.751 212.708,236.085 212.5,232.5C 213.5,232.5 214.5,232.5 215.5,232.5C 215.704,229.482 216.037,226.482 216.5,223.5C 217.458,223.047 218.292,222.381 219,221.5C 219.696,218.522 220.196,215.522 220.5,212.5C 220.5,212.167 220.5,211.833 220.5,211.5C 222.655,209.383 223.655,206.716 223.5,203.5C 223.676,200.273 224.343,197.273 225.5,194.5C 226.812,192.304 227.979,189.97 229,187.5C 229.05,181.99 229.717,176.657 231,171.5C 231.832,163.147 231.665,154.813 230.5,146.5C 229.828,145.051 229.161,143.718 228.5,142.5C 228.5,141.833 228.5,141.167 228.5,140.5C 228.664,137.813 228.497,135.146 228,132.5C 227.722,131.584 227.222,130.918 226.5,130.5C 226.5,129.833 226.5,129.167 226.5,128.5C 226.663,126.143 226.497,123.81 226,121.5C 225.617,120.944 225.117,120.611 224.5,120.5C 224.493,117.962 224.159,115.462 223.5,113C 223.285,111.092 222.285,109.926 220.5,109.5C 220.5,109.167 220.5,108.833 220.5,108.5C 219.441,103.584 217.774,98.9168 215.5,94.5C 215.414,93.5041 215.748,92.6708 216.5,92C 213.822,91.8386 212.155,90.5052 211.5,88C 212.896,85.6038 214.896,83.9371 217.5,83C 216.892,82.1301 216.059,81.6301 215,81.5C 213.344,82.7653 211.677,84.0987 210,85.5C 209.405,84.1011 209.572,82.7678 210.5,81.5C 207.661,79.5797 204.661,77.9131 201.5,76.5C 203.124,75.1311 203.624,73.4645 203,71.5C 200.931,70.7362 198.764,70.2362 196.5,70C 198.037,68.8904 198.703,67.3904 198.5,65.5C 196.5,65.8333 194.5,66.1667 192.5,66.5C 192.5,65.1667 192.5,63.8333 192.5,62.5C 190.473,62.3379 188.473,62.5045 186.5,63C 188.815,64.3675 188.815,65.2009 186.5,65.5C 184.52,64.5161 182.853,63.1827 181.5,61.5C 182.397,61.3309 183.397,60.9976 184.5,60.5C 184.291,59.914 183.957,59.414 183.5,59C 181.199,58.1965 179.032,58.6965 177,60.5C 176.329,59.7476 175.496,59.4142 174.5,59.5C 172.345,59.628 170.345,59.128 168.5,58C 167.359,57.2588 167.359,56.4255 168.5,55.5C 166.242,54.63 163.909,54.63 161.5,55.5C 159.933,55.523 158.6,55.023 157.5,54C 146.833,53.3333 136.167,53.3333 125.5,54C 124.944,54.3826 124.611,54.8826 124.5,55.5C 124.5,55.8333 124.5,56.1667 124.5,56.5C 123.833,56.5 123.167,56.5 122.5,56.5C 112.333,56.9286 102.333,57.5953 92.5,58.5C 90.847,58.6596 89.5137,59.3263 88.5,60.5C 84.8776,60.322 81.5443,60.9886 78.5,62.5C 76.1016,62.2594 74.1016,62.9261 72.5,64.5C 66.7803,64.9564 61.7803,66.9564 57.5,70.5C 54.3405,71.4433 51.3405,72.7767 48.5,74.5C 43.4938,76.6517 38.8272,79.485 34.5,83C 32.6266,84.7038 30.9599,86.5372 29.5,88.5C 25.2294,91.1009 21.5628,94.4342 18.5,98.5C 17.0937,98.9731 16.427,99.9731 16.5,101.5C 15.0937,101.973 14.427,102.973 14.5,104.5C 11.1752,107.832 8.17517,111.499 5.5,115.5C 4.53178,113.393 4.19845,111.059 4.5,108.5C 5.92381,106.485 6.59047,104.152 6.5,101.5C 6.5,101.167 6.5,100.833 6.5,100.5C 9.3312,97.9122 10.6645,94.5788 10.5,90.5C 12.3428,89.754 13.6761,88.4206 14.5,86.5C 16.1738,81.8225 17.8405,77.1558 19.5,72.5C 21.4168,70.7039 23.2501,68.7039 25,66.5C 25.6077,64.8455 26.1077,63.1789 26.5,61.5C 28.2624,60.7377 29.2624,59.4044 29.5,57.5C 32.973,55.3633 35.3064,52.3633 36.5,48.5C 38.8333,45.5 41.5,42.8333 44.5,40.5C 47.4274,39.2427 49.7607,37.2427 51.5,34.5C 53.9485,31.4442 56.9485,29.1108 60.5,27.5C 62.0269,27.573 63.0269,26.9063 63.5,25.5C 65.0269,25.573 66.0269,24.9063 66.5,23.5C 70.3472,20.4074 74.6805,18.0741 79.5,16.5C 83.836,16.1631 87.5026,14.4965 90.5,11.5C 102.447,8.83843 114.447,6.33843 126.5,4C 138.514,3.35772 150.514,3.52439 162.5,4.5 Z"/></g>
<g><path style="opacity:1" fill="#eb8d70" d="M 165.5,4.5 C 168.373,4.80233 171.039,5.46899 173.5,6.5C 171.143,6.66331 168.81,6.49665 166.5,6C 165.944,5.61742 165.611,5.11742 165.5,4.5 Z"/></g>
<g><path style="opacity:1" fill="#e6613f" d="M 162.5,4.5 C 150.514,3.52439 138.514,3.35772 126.5,4C 114.447,6.33843 102.447,8.83843 90.5,11.5C 113.865,2.43567 137.865,0.102333 162.5,4.5 Z"/></g>
<g><path style="opacity:1" fill="#e87552" d="M 174.5,6.5 C 178.785,7.26159 182.785,8.59492 186.5,10.5C 181.77,10.7758 177.77,9.44248 174.5,6.5 Z"/></g>
<g><path style="opacity:1" fill="#e56445" d="M 90.5,11.5 C 87.5026,14.4965 83.836,16.1631 79.5,16.5C 82.7403,14.049 86.4069,12.3824 90.5,11.5 Z"/></g>
<g><path style="opacity:1" fill="#ef6540" d="M 187.5,10.5 C 197.017,13.3263 205.684,17.6597 213.5,23.5C 205.687,21.109 198.021,18.109 190.5,14.5C 189.09,13.4305 188.09,12.0972 187.5,10.5 Z"/></g>
<g><path style="opacity:0.855" fill="#ee9876" d="M 66.5,23.5 C 66.0269,24.9063 65.0269,25.573 63.5,25.5C 63.9731,24.0937 64.9731,23.427 66.5,23.5 Z"/></g>
<g><path style="opacity:0.847" fill="#f99a83" d="M 63.5,25.5 C 63.0269,26.9063 62.0269,27.573 60.5,27.5C 60.9731,26.0937 61.9731,25.427 63.5,25.5 Z"/></g>
<g><path style="opacity:1" fill="#ed512c" d="M 214.5,23.5 C 217.047,24.9336 219.381,26.6002 221.5,28.5C 221.821,30.0481 222.821,30.7148 224.5,30.5C 225.5,30.8333 226.167,31.5 226.5,32.5C 226.5,33.1667 226.5,33.8333 226.5,34.5C 220.883,32.5473 216.883,28.8806 214.5,23.5 Z"/></g>
<g><path style="opacity:1" fill="#f1937b" d="M 221.5,28.5 C 222.71,28.9321 223.71,29.5987 224.5,30.5C 222.821,30.7148 221.821,30.0481 221.5,28.5 Z"/></g>
<g><path style="opacity:1" fill="#e88b77" d="M 226.5,32.5 C 228.23,33.0256 229.564,34.0256 230.5,35.5C 229.167,35.1667 227.833,34.8333 226.5,34.5C 226.5,33.8333 226.5,33.1667 226.5,32.5 Z"/></g>
<g><path style="opacity:0.988" fill="#e57b5b" d="M 51.5,34.5 C 49.7607,37.2427 47.4274,39.2427 44.5,40.5C 46.2393,37.7573 48.5726,35.7573 51.5,34.5 Z"/></g>
<g><path style="opacity:0.839" fill="#f3a28d" d="M 235.5,39.5 C 236.833,40.1667 237.833,41.1667 238.5,42.5C 236.5,42.5 235.5,41.5 235.5,39.5 Z"/></g>
<g><path style="opacity:1" fill="#e77250" d="M 36.5,48.5 C 35.3064,52.3633 32.973,55.3633 29.5,57.5C 31.4581,54.2085 33.7915,51.2085 36.5,48.5 Z"/></g>
<g><path style="opacity:1" fill="#e44f2b" d="M 174.5,59.5 C 175.11,60.391 175.443,61.391 175.5,62.5C 164.014,57.6688 152.014,55.0022 139.5,54.5C 134.438,54.2743 129.438,54.6076 124.5,55.5C 124.611,54.8826 124.944,54.3826 125.5,54C 136.167,53.3333 146.833,53.3333 157.5,54C 158.6,55.023 159.933,55.523 161.5,55.5C 163.909,54.63 166.242,54.63 168.5,55.5C 167.359,56.4255 167.359,57.2588 168.5,58C 170.345,59.128 172.345,59.628 174.5,59.5 Z"/></g>
<g><path style="opacity:0.212" fill="#f5af9c" d="M 139.5,54.5 C 134.654,55.327 129.654,55.9937 124.5,56.5C 124.5,56.1667 124.5,55.8333 124.5,55.5C 129.438,54.6076 134.438,54.2743 139.5,54.5 Z"/></g>
<g><path style="opacity:1" fill="#de5536" d="M 122.5,56.5 C 120.095,57.7682 117.428,58.4349 114.5,58.5C 109.167,58.5 103.833,58.5 98.5,58.5C 96.5,58.5 94.5,58.5 92.5,58.5C 102.333,57.5953 112.333,56.9286 122.5,56.5 Z"/></g>
<g><path style="opacity:1" fill="#aa544f" d="M 92.5,58.5 C 94.5,58.5 96.5,58.5 98.5,58.5C 98.5,58.8333 98.5,59.1667 98.5,59.5C 95.1401,59.6159 91.8067,59.9492 88.5,60.5C 89.5137,59.3263 90.847,58.6596 92.5,58.5 Z"/></g>
<g><path style="opacity:0.898" fill="#a5929e" d="M 98.5,59.5 C 98.5,59.1667 98.5,58.8333 98.5,58.5C 103.833,58.5 109.167,58.5 114.5,58.5C 113.07,59.5375 111.403,60.2041 109.5,60.5C 107.393,59.5318 105.059,59.1984 102.5,59.5C 101.167,59.5 99.8333,59.5 98.5,59.5 Z"/></g>
<g><path style="opacity:1" fill="#ef4f2a" d="M 238.5,42.5 C 245.297,48.6258 250.964,55.6258 255.5,63.5C 253.488,62.7717 251.488,61.9383 249.5,61C 248.472,57.49 246.805,54.3233 244.5,51.5C 243.914,51.7093 243.414,52.0426 243,52.5C 242.667,51.1667 242.333,49.8333 242,48.5C 241,47.1667 240,47.1667 239,48.5C 238.505,46.5273 238.338,44.5273 238.5,42.5 Z"/></g>
<g><path style="opacity:0.898" fill="#ec8668" d="M 29.5,57.5 C 29.2624,59.4044 28.2624,60.7377 26.5,61.5C 26.7376,59.5956 27.7376,58.2623 29.5,57.5 Z"/></g>
<g><path style="opacity:1" fill="#5d769a" d="M 98.5,59.5 C 99.8333,59.5 101.167,59.5 102.5,59.5C 100.095,60.7682 97.4282,61.4349 94.5,61.5C 89.1667,61.8333 83.8333,62.1667 78.5,62.5C 81.5443,60.9886 84.8776,60.322 88.5,60.5C 91.8067,59.9492 95.1401,59.6159 98.5,59.5 Z"/></g>
<g><path style="opacity:1" fill="#857a8c" d="M 78.5,62.5 C 76.8984,64.0739 74.8984,64.7406 72.5,64.5C 74.1016,62.9261 76.1016,62.2594 78.5,62.5 Z"/></g>
<g><path style="opacity:1" fill="#ec6c48" d="M 26.5,61.5 C 26.1077,63.1789 25.6077,64.8455 25,66.5C 23.2501,68.7039 21.4168,70.7039 19.5,72.5C 20.6571,68.0243 22.9905,64.3577 26.5,61.5 Z"/></g>
<g><path style="opacity:0.78" fill="#e7826a" d="M 255.5,63.5 C 256.906,63.9731 257.573,64.9731 257.5,66.5C 256.094,66.0269 255.427,65.0269 255.5,63.5 Z"/></g>
<g><path style="opacity:1" fill="#0e0e0e" d="M 113.5,66.5 C 130.833,66.5 148.167,66.5 165.5,66.5C 165.657,67.8734 165.49,69.2068 165,70.5C 148.167,87.3333 131.333,104.167 114.5,121C 113.207,121.49 111.873,121.657 110.5,121.5C 110.333,104.163 110.5,86.8301 111,69.5C 112.045,68.6266 112.878,67.6266 113.5,66.5 Z"/></g>
<g><path style="opacity:1" fill="#5d79a1" d="M 72.5,64.5 C 68.3287,68.2821 63.3287,70.2821 57.5,70.5C 61.7803,66.9564 66.7803,64.9564 72.5,64.5 Z"/></g>
<g><path style="opacity:0.467" fill="#faa190" d="M 185.5,67.5 C 187.027,67.427 188.027,68.0937 188.5,69.5C 186.973,69.573 185.973,68.9063 185.5,67.5 Z"/></g>
<g><path style="opacity:1" fill="#f4370f" d="M 215.5,94.5 C 214.609,93.8902 213.609,93.5569 212.5,93.5C 209.174,89.172 205.84,84.8387 202.5,80.5C 202.027,79.0937 201.027,78.427 199.5,78.5C 197.833,77.5 196.5,76.1667 195.5,74.5C 194.738,72.7376 193.404,71.7376 191.5,71.5C 191.027,70.0937 190.027,69.427 188.5,69.5C 188.027,68.0937 187.027,67.427 185.5,67.5C 182.193,65.8466 178.86,64.1799 175.5,62.5C 175.443,61.391 175.11,60.391 174.5,59.5C 175.496,59.4142 176.329,59.7476 177,60.5C 179.032,58.6965 181.199,58.1965 183.5,59C 183.957,59.414 184.291,59.914 184.5,60.5C 183.397,60.9976 182.397,61.3309 181.5,61.5C 182.853,63.1827 184.52,64.5161 186.5,65.5C 188.815,65.2009 188.815,64.3675 186.5,63C 188.473,62.5045 190.473,62.3379 192.5,62.5C 192.5,63.8333 192.5,65.1667 192.5,66.5C 194.5,66.1667 196.5,65.8333 198.5,65.5C 198.703,67.3904 198.037,68.8904 196.5,70C 198.764,70.2362 200.931,70.7362 203,71.5C 203.624,73.4645 203.124,75.1311 201.5,76.5C 204.661,77.9131 207.661,79.5797 210.5,81.5C 209.572,82.7678 209.405,84.1011 210,85.5C 211.677,84.0987 213.344,82.7653 215,81.5C 216.059,81.6301 216.892,82.1301 217.5,83C 214.896,83.9371 212.896,85.6038 211.5,88C 212.155,90.5052 213.822,91.8386 216.5,92C 215.748,92.6708 215.414,93.5041 215.5,94.5 Z"/></g>
<g><path style="opacity:1" fill="#101010" d="M 168.5,69.5 C 171.32,69.2475 173.986,69.7475 176.5,71C 188.196,82.3624 199.53,94.0291 210.5,106C 209.833,106.667 209.167,107.333 208.5,108C 183.833,108.667 159.167,108.667 134.5,108C 133.483,106.951 133.316,105.784 134,104.5C 145.702,92.9651 157.202,81.2985 168.5,69.5 Z"/></g>
<g><path style="opacity:0.522" fill="#fea999" d="M 188.5,69.5 C 190.027,69.427 191.027,70.0937 191.5,71.5C 189.973,71.573 188.973,70.9063 188.5,69.5 Z"/></g>
<g><path style="opacity:0.922" fill="#ef9a79" d="M 191.5,71.5 C 193.404,71.7376 194.738,72.7376 195.5,74.5C 193.596,74.2624 192.262,73.2624 191.5,71.5 Z"/></g>
<g><path style="opacity:0.847" fill="#767676" d="M 105.5,71.5 C 104.738,73.2624 103.404,74.2624 101.5,74.5C 102.262,72.7376 103.596,71.7376 105.5,71.5 Z"/></g>
<g><path style="opacity:1" fill="#111111" d="M 105.5,71.5 C 106.496,71.4142 107.329,71.7476 108,72.5C 108.827,97.4057 108.661,122.239 107.5,147C 105.711,147.52 104.044,147.187 102.5,146C 91.3034,135.137 80.47,123.971 70,112.5C 69.3333,110.5 69.3333,108.5 70,106.5C 77.0633,99.6048 83.8967,92.6048 90.5,85.5C 92.5,85.5 93.5,84.5 93.5,82.5C 94.8333,80.5 96.5,78.8333 98.5,77.5C 100.5,77.5 101.5,76.5 101.5,74.5C 103.404,74.2624 104.738,73.2624 105.5,71.5 Z"/></g>
<g><path style="opacity:0.839" fill="#767676" d="M 101.5,74.5 C 101.5,76.5 100.5,77.5 98.5,77.5C 99.1667,76.1667 100.167,75.1667 101.5,74.5 Z"/></g>
<g><path style="opacity:0.855" fill="#ef997d" d="M 199.5,78.5 C 201.027,78.427 202.027,79.0937 202.5,80.5C 200.973,80.573 199.973,79.9063 199.5,78.5 Z"/></g>
<g><path style="opacity:1" fill="#3e93cf" d="M 102.5,59.5 C 105.059,59.1984 107.393,59.5318 109.5,60.5C 92.9636,67.3559 79.297,78.0226 68.5,92.5C 68.5792,91.0695 68.2458,89.7362 67.5,88.5C 67.9377,87.4937 68.6043,87.4937 69.5,88.5C 70.6345,85.8332 71.6345,83.1666 72.5,80.5C 76.5,80.1667 76.5,79.8333 72.5,79.5C 72.5,78.5 72.5,77.5 72.5,76.5C 74.1998,76.6261 75.6998,77.2927 77,78.5C 78.2438,76.4236 80.0771,75.4236 82.5,75.5C 82.5,74.1667 82.5,72.8333 82.5,71.5C 83.8333,71.5 85.1667,71.5 86.5,71.5C 86.5198,69.857 85.8532,68.5237 84.5,67.5C 85.5,66.8333 86.5,66.1667 87.5,65.5C 91.1667,64.8333 94.8333,64.1667 98.5,63.5C 97.0508,62.8281 95.7175,62.1614 94.5,61.5C 97.4282,61.4349 100.095,60.7682 102.5,59.5 Z"/></g>
<g><path style="opacity:1" fill="#667999" d="M 48.5,74.5 C 45.5359,77.166 42.5359,79.8327 39.5,82.5C 35.8935,84.1195 32.5602,86.1195 29.5,88.5C 30.9599,86.5372 32.6266,84.7038 34.5,83C 38.8272,79.485 43.4938,76.6517 48.5,74.5 Z"/></g>
<g><path style="opacity:0.831" fill="#767676" d="M 93.5,82.5 C 93.5,84.5 92.5,85.5 90.5,85.5C 91.1667,84.1667 92.1667,83.1667 93.5,82.5 Z"/></g>
<g><path style="opacity:1" fill="#e85630" d="M 19.5,72.5 C 17.8405,77.1558 16.1738,81.8225 14.5,86.5C 13.6761,88.4206 12.3428,89.754 10.5,90.5C 12.4651,83.9031 15.4651,77.9031 19.5,72.5 Z"/></g>
<g><path style="opacity:1" fill="#e95936" d="M 257.5,66.5 C 267.083,79.6763 273.417,94.343 276.5,110.5C 273.204,101.405 269.538,92.4052 265.5,83.5C 264.675,82.6143 263.675,82.281 262.5,82.5C 263.348,76.6916 261.015,72.8583 255.5,71C 257.107,69.951 257.773,68.451 257.5,66.5 Z"/></g>
<g><path style="opacity:1" fill="#e56848" d="M 10.5,90.5 C 10.6645,94.5788 9.3312,97.9122 6.5,100.5C 7.26672,96.8512 8.60006,93.5178 10.5,90.5 Z"/></g>
<g><path style="opacity:1" fill="#eb7150" d="M 212.5,93.5 C 213.609,93.5569 214.609,93.8902 215.5,94.5C 217.774,98.9168 219.441,103.584 220.5,108.5C 217.595,103.693 214.928,98.6935 212.5,93.5 Z"/></g>
<g><path style="opacity:1" fill="#1287cd" d="M 94.5,61.5 C 95.7175,62.1614 97.0508,62.8281 98.5,63.5C 94.8333,64.1667 91.1667,64.8333 87.5,65.5C 86.5,66.1667 85.5,66.8333 84.5,67.5C 85.8532,68.5237 86.5198,69.857 86.5,71.5C 85.1667,71.5 83.8333,71.5 82.5,71.5C 82.5,72.8333 82.5,74.1667 82.5,75.5C 80.0771,75.4236 78.2438,76.4236 77,78.5C 75.6998,77.2927 74.1998,76.6261 72.5,76.5C 72.5,77.5 72.5,78.5 72.5,79.5C 76.5,79.8333 76.5,80.1667 72.5,80.5C 71.6345,83.1666 70.6345,85.8332 69.5,88.5C 68.6043,87.4937 67.9377,87.4937 67.5,88.5C 68.2458,89.7362 68.5792,91.0695 68.5,92.5C 67.8897,94.4341 66.8897,96.1007 65.5,97.5C 63.326,97.7497 61.6594,98.7497 60.5,100.5C 57.6298,101.433 55.2964,103.1 53.5,105.5C 47.2166,108.783 42.2166,113.45 38.5,119.5C 36.4131,120.585 35.0798,122.251 34.5,124.5C 32.4131,125.585 31.0798,127.251 30.5,129.5C 30.5,129.833 30.5,130.167 30.5,130.5C 27.9142,131.487 26.5809,133.487 26.5,136.5C 25.3263,137.514 24.6596,138.847 24.5,140.5C 22.9209,144.023 21.5875,147.69 20.5,151.5C 18.7868,152.635 18.1201,154.302 18.5,156.5C 17.6156,159.023 16.7823,161.69 16,164.5C 15.5002,173.16 15.3336,181.827 15.5,190.5C 15.8174,193.572 15.4841,196.572 14.5,199.5C 13.914,199.291 13.414,198.957 13,198.5C 12.1667,195.5 11.3333,192.5 10.5,189.5C 9.81654,189.863 9.14987,190.196 8.5,190.5C 4.77379,180.929 2.27379,170.929 1,160.5C 0.333333,148.5 0.333333,136.5 1,124.5C 1.19088,122.292 1.69088,120.292 2.5,118.5C 2.7856,120.933 3.45227,120.933 4.5,118.5C 5.5,118.5 6.5,118.5 7.5,118.5C 7.34332,117.127 7.50999,115.793 8,114.5C 10.4297,111.299 12.5963,107.966 14.5,104.5C 14.427,102.973 15.0937,101.973 16.5,101.5C 17.9063,101.027 18.573,100.027 18.5,98.5C 21.5628,94.4342 25.2294,91.1009 29.5,88.5C 32.5602,86.1195 35.8935,84.1195 39.5,82.5C 42.5359,79.8327 45.5359,77.166 48.5,74.5C 51.3405,72.7767 54.3405,71.4433 57.5,70.5C 63.3287,70.2821 68.3287,68.2821 72.5,64.5C 74.8984,64.7406 76.8984,64.0739 78.5,62.5C 83.8333,62.1667 89.1667,61.8333 94.5,61.5 Z"/></g>
<g><path style="opacity:1" fill="#ab6c6f" d="M 18.5,98.5 C 18.573,100.027 17.9063,101.027 16.5,101.5C 16.427,99.9731 17.0937,98.9731 18.5,98.5 Z"/></g>
<g><path style="opacity:1" fill="#c7c399" d="M 65.5,97.5 C 64.8897,99.4341 63.8897,101.101 62.5,102.5C 62.5,101.167 61.8333,100.5 60.5,100.5C 61.6594,98.7497 63.326,97.7497 65.5,97.5 Z"/></g>
<g><path style="opacity:1" fill="#e2ad52" d="M 60.5,100.5 C 61.8333,100.5 62.5,101.167 62.5,102.5C 62.0075,104.819 61.0075,106.819 59.5,108.5C 59.5,106.833 59.5,105.167 59.5,103.5C 57.3146,103.704 55.3146,104.37 53.5,105.5C 55.2964,103.1 57.6298,101.433 60.5,100.5 Z"/></g>
<g><path style="opacity:0.98" fill="#f1907c" d="M 6.5,101.5 C 6.59047,104.152 5.92381,106.485 4.5,108.5C 4.40953,105.848 5.07619,103.515 6.5,101.5 Z"/></g>
<g><path style="opacity:1" fill="#7b768d" d="M 14.5,104.5 C 12.5963,107.966 10.4297,111.299 8,114.5C 7.50999,115.793 7.34332,117.127 7.5,118.5C 6.5,118.5 5.5,118.5 4.5,118.5C 4.55688,117.391 4.89022,116.391 5.5,115.5C 8.17517,111.499 11.1752,107.832 14.5,104.5 Z"/></g>
<g><path style="opacity:0.775" fill="#474747" d="M 211.5,111.5 C 194.5,111.5 177.5,111.5 160.5,111.5C 160.5,112.5 160.5,113.5 160.5,114.5C 159.566,113.432 159.232,112.099 159.5,110.5C 177.008,110.17 194.341,110.503 211.5,111.5 Z"/></g>
<g><path style="opacity:1" fill="#ee8264" d="M 220.5,109.5 C 222.285,109.926 223.285,111.092 223.5,113C 224.159,115.462 224.493,117.962 224.5,120.5C 222.938,117.018 221.605,113.352 220.5,109.5 Z"/></g>
<g><path style="opacity:1" fill="#080808" d="M 211.5,111.5 C 212.458,111.953 213.292,112.619 214,113.5C 214.5,130.83 214.667,148.163 214.5,165.5C 213.127,165.657 211.793,165.49 210.5,165C 193.632,148.299 176.965,131.465 160.5,114.5C 160.5,113.5 160.5,112.5 160.5,111.5C 177.5,111.5 194.5,111.5 211.5,111.5 Z"/></g>
<g><path style="opacity:1" fill="#fd9806" d="M 59.5,108.5 C 58.696,111.579 57.696,114.579 56.5,117.5C 55.0269,119.583 53.8602,121.916 53,124.5C 52.5006,129.823 52.334,135.156 52.5,140.5C 52.9046,157.119 56.9046,172.786 64.5,187.5C 64.3433,188.873 64.51,190.207 65,191.5C 67.633,193.951 69.2996,196.951 70,200.5C 71.4293,200.47 72.9293,200.803 74.5,201.5C 76.8333,203.167 78.8333,205.167 80.5,207.5C 80.6243,209.582 81.6243,211.082 83.5,212C 83.1667,212.333 82.8333,212.667 82.5,213C 83.448,213.483 84.448,213.649 85.5,213.5C 85.1192,215.942 85.7859,216.609 87.5,215.5C 88.931,215.977 90.2643,216.643 91.5,217.5C 91.2907,218.086 90.9574,218.586 90.5,219C 95.4302,220.413 99.9302,222.58 104,225.5C 105.011,224.663 106.178,224.33 107.5,224.5C 107.833,224.5 108.167,224.5 108.5,224.5C 108.804,225.15 109.137,225.817 109.5,226.5C 129.855,233.125 150.189,233.125 170.5,226.5C 170.863,225.817 171.196,225.15 171.5,224.5C 171.833,224.5 172.167,224.5 172.5,224.5C 177.524,224.27 181.524,222.27 184.5,218.5C 186.239,217.566 187.905,217.566 189.5,218.5C 187.896,220.179 187.229,222.179 187.5,224.5C 185.284,224.275 183.617,225.108 182.5,227C 183.38,228.356 183.714,229.856 183.5,231.5C 183.068,232.71 182.401,233.71 181.5,234.5C 180.167,234.5 178.833,234.5 177.5,234.5C 177.5,235.833 177.5,237.167 177.5,238.5C 176.5,238.5 175.5,238.5 174.5,238.5C 174.5,239.5 174.5,240.5 174.5,241.5C 173.167,241.5 171.833,241.5 170.5,241.5C 170.5,243.167 170.5,244.833 170.5,246.5C 168.61,246.703 167.11,246.037 166,244.5C 165.915,246.085 165.749,247.418 165.5,248.5C 163.544,247.452 161.544,246.952 159.5,247C 161.677,248.186 162.677,250.019 162.5,252.5C 160.549,252.227 159.049,252.893 158,254.5C 157.333,253.833 156.667,253.167 156,252.5C 155.495,254.518 154.995,256.518 154.5,258.5C 153.486,259.674 152.153,260.34 150.5,260.5C 140.149,263.881 129.482,266.714 118.5,269C 109.84,269.5 101.173,269.666 92.5,269.5C 78.1778,267.845 65.5112,262.511 54.5,253.5C 53.5423,252.038 52.3756,250.705 51,249.5C 50.5065,247.866 50.3398,246.199 50.5,244.5C 47.8728,243.908 45.2062,243.575 42.5,243.5C 40.8333,242.5 39.5,241.167 38.5,239.5C 37.8645,237.205 36.5311,235.539 34.5,234.5C 31.0532,229.394 28.0532,224.061 25.5,218.5C 24.596,217.791 24.2627,216.791 24.5,215.5C 24.573,213.973 23.9063,212.973 22.5,212.5C 22.5,212.167 22.5,211.833 22.5,211.5C 22.1447,204.059 20.478,197.059 17.5,190.5C 17.5,189.833 17.5,189.167 17.5,188.5C 17.3337,181.159 17.5003,173.826 18,166.5C 19.8911,161.662 21.0578,156.662 21.5,151.5C 24.838,151.891 25.838,150.724 24.5,148C 26.5814,146.618 26.9147,144.951 25.5,143C 27.0128,141.121 27.6795,138.954 27.5,136.5C 28.1228,134.289 29.1228,132.289 30.5,130.5C 30.5,130.167 30.5,129.833 30.5,129.5C 32.5869,128.415 33.9202,126.749 34.5,124.5C 36.9354,123.73 38.2687,122.063 38.5,119.5C 43.5261,114.805 48.5261,110.139 53.5,105.5C 55.3146,104.37 57.3146,103.704 59.5,103.5C 59.5,105.167 59.5,106.833 59.5,108.5 Z"/></g>
<g><path style="opacity:1" fill="#b8a666" d="M 53.5,105.5 C 48.5261,110.139 43.5261,114.805 38.5,119.5C 42.2166,113.45 47.2166,108.783 53.5,105.5 Z"/></g>
<g><path style="opacity:1" fill="#d85f46" d="M 4.5,108.5 C 4.19845,111.059 4.53178,113.393 5.5,115.5C 4.89022,116.391 4.55688,117.391 4.5,118.5C 3.45227,120.933 2.7856,120.933 2.5,118.5C 2.54877,114.922 3.21543,111.589 4.5,108.5 Z"/></g>
<g><path style="opacity:0.631" fill="#818282" d="M 70.5,116.5 C 69.0413,116.433 67.7079,116.766 66.5,117.5C 66.62,116.414 67.2867,115.747 68.5,115.5C 69.4164,115.543 70.0831,115.876 70.5,116.5 Z"/></g>
<g><path style="opacity:1" fill="#0a0a0b" d="M 70.5,116.5 C 87.4652,132.965 104.299,149.632 121,166.5C 121.49,167.793 121.657,169.127 121.5,170.5C 104.163,170.667 86.8301,170.5 69.5,170C 68.6667,169.167 67.8333,168.333 67,167.5C 66.5001,150.837 66.3334,134.17 66.5,117.5C 67.7079,116.766 69.0413,116.433 70.5,116.5 Z"/></g>
<g><path style="opacity:1" fill="#d0a655" d="M 38.5,119.5 C 38.2687,122.063 36.9354,123.73 34.5,124.5C 35.0798,122.251 36.4131,120.585 38.5,119.5 Z"/></g>
<g><path style="opacity:1" fill="#e97c60" d="M 224.5,120.5 C 225.117,120.611 225.617,120.944 226,121.5C 226.497,123.81 226.663,126.143 226.5,128.5C 225.469,126.039 224.802,123.373 224.5,120.5 Z"/></g>
<g><path style="opacity:1" fill="#a1a375" d="M 34.5,124.5 C 33.9202,126.749 32.5869,128.415 30.5,129.5C 31.0798,127.251 32.4131,125.585 34.5,124.5 Z"/></g>
<g><path style="opacity:1" fill="#f7c373" d="M 56.5,117.5 C 54.6218,125.207 53.2885,132.874 52.5,140.5C 52.334,135.156 52.5006,129.823 53,124.5C 53.8602,121.916 55.0269,119.583 56.5,117.5 Z"/></g>
<g><path style="opacity:1" fill="#ec9077" d="M 226.5,130.5 C 227.222,130.918 227.722,131.584 228,132.5C 228.497,135.146 228.664,137.813 228.5,140.5C 227.566,137.344 226.899,134.011 226.5,130.5 Z"/></g>
<g><path style="opacity:1" fill="#151515" d="M 173.5,133.5 C 175.308,133.491 176.975,133.991 178.5,135C 189,145.5 199.5,156 210,166.5C 212,169.833 212,173.167 210,176.5C 198.638,188.196 186.971,199.53 175,210.5C 174.085,209.672 173.419,208.672 173,207.5C 172.186,182.791 172.353,158.124 173.5,133.5 Z"/></g>
<g><path style="opacity:0.549" fill="#f69e86" d="M 278.5,120.5 C 279.889,125.269 280.556,130.269 280.5,135.5C 279.111,130.731 278.444,125.731 278.5,120.5 Z"/></g>
<g><path style="opacity:1" fill="#91a185" d="M 30.5,130.5 C 29.1228,132.289 28.1228,134.289 27.5,136.5C 27.1667,136.5 26.8333,136.5 26.5,136.5C 26.5809,133.487 27.9142,131.487 30.5,130.5 Z"/></g>
<g><path style="opacity:1" fill="#a8b07f" d="M 26.5,136.5 C 26.7709,138.38 26.1042,139.713 24.5,140.5C 24.6596,138.847 25.3263,137.514 26.5,136.5 Z"/></g>
<g><path style="opacity:1" fill="#e69f31" d="M 26.5,136.5 C 26.8333,136.5 27.1667,136.5 27.5,136.5C 27.6795,138.954 27.0128,141.121 25.5,143C 26.9147,144.951 26.5814,146.618 24.5,148C 25.838,150.724 24.838,151.891 21.5,151.5C 21.0578,156.662 19.8911,161.662 18,166.5C 17.5003,173.826 17.3337,181.159 17.5,188.5C 16.8345,184.849 16.5012,181.015 16.5,177C 16.4304,170.066 17.097,163.232 18.5,156.5C 20.2132,155.365 20.8799,153.698 20.5,151.5C 21.5875,147.69 22.9209,144.023 24.5,140.5C 26.1042,139.713 26.7709,138.38 26.5,136.5 Z"/></g>
<g><path style="opacity:1" fill="#909d76" d="M 20.5,151.5 C 20.8799,153.698 20.2132,155.365 18.5,156.5C 18.1201,154.302 18.7868,152.635 20.5,151.5 Z"/></g>
<g><path style="opacity:0.827" fill="#747474" d="M 168.5,159.5 C 168.027,160.906 167.027,161.573 165.5,161.5C 165.973,160.094 166.973,159.427 168.5,159.5 Z"/></g>
<g><path style="opacity:1" fill="#080808" d="M 168.5,159.5 C 169.831,167.807 170.498,176.473 170.5,185.5C 178.167,212.5 168.5,222.167 141.5,214.5C 132.473,214.498 123.807,213.831 115.5,212.5C 116.906,212.027 117.573,211.027 117.5,209.5C 133.167,193.167 149.167,177.167 165.5,161.5C 167.027,161.573 168.027,160.906 168.5,159.5 Z"/></g>
<g><path style="opacity:1" fill="#e75c3b" d="M 276.5,110.5 C 277.785,113.589 278.451,116.922 278.5,120.5C 278.444,125.731 279.111,130.731 280.5,135.5C 280.666,143.174 280.5,150.841 280,158.5C 279.728,163.076 278.895,167.409 277.5,171.5C 277.433,162.605 278.1,153.772 279.5,145C 278.051,133.544 277.051,122.044 276.5,110.5 Z"/></g>
<g><path style="opacity:1" fill="#548a8f" d="M 18.5,156.5 C 17.097,163.232 16.4304,170.066 16.5,177C 16.5012,181.015 16.8345,184.849 17.5,188.5C 17.5,189.167 17.5,189.833 17.5,190.5C 17.9926,192.806 18.3259,195.139 18.5,197.5C 16.9805,195.412 15.9805,193.078 15.5,190.5C 15.3336,181.827 15.5002,173.16 16,164.5C 16.7823,161.69 17.6156,159.023 18.5,156.5 Z"/></g>
<g><path style="opacity:1" fill="#141414" d="M 86.5,191.5 C 86.5,189.5 85.5,188.5 83.5,188.5C 78.7842,184.786 74.7842,180.453 71.5,175.5C 71.8178,174.353 72.4844,173.519 73.5,173C 97.876,172.177 122.209,172.343 146.5,173.5C 147.614,174.723 147.781,176.056 147,177.5C 135.833,188.667 124.667,199.833 113.5,211C 110.366,211.79 107.366,211.457 104.5,210C 98.2972,203.965 92.2972,197.798 86.5,191.5 Z"/></g>
<g><path style="opacity:1" fill="#ec6e4d" d="M 277.5,172.5 C 276.767,177.445 275.434,182.112 273.5,186.5C 273.187,183.753 273.52,181.086 274.5,178.5C 275.011,176.116 276.011,174.116 277.5,172.5 Z"/></g>
<g><path style="opacity:1" fill="#eb6542" d="M 228.5,142.5 C 229.161,143.718 229.828,145.051 230.5,146.5C 231.665,154.813 231.832,163.147 231,171.5C 229.717,176.657 229.05,181.99 229,187.5C 227.979,189.97 226.812,192.304 225.5,194.5C 228.538,177.262 229.538,159.929 228.5,142.5 Z"/></g>
<g><path style="opacity:0.969" fill="#787878" d="M 83.5,188.5 C 85.5,188.5 86.5,189.5 86.5,191.5C 85.1667,190.833 84.1667,189.833 83.5,188.5 Z"/></g>
<g><path style="opacity:1" fill="#ec6745" d="M 272.5,190.5 C 270.87,195.081 268.87,199.414 266.5,203.5C 266.337,201.143 266.503,198.81 267,196.5C 268.755,195.33 269.755,193.663 270,191.5C 270.671,190.748 271.504,190.414 272.5,190.5 Z"/></g>
<g><path style="opacity:1" fill="#dda03a" d="M 17.5,190.5 C 20.478,197.059 22.1447,204.059 22.5,211.5C 20.9598,206.989 19.6264,202.322 18.5,197.5C 18.3259,195.139 17.9926,192.806 17.5,190.5 Z"/></g>
<g><path style="opacity:1" fill="#f5ac42" d="M 64.5,187.5 C 68.2141,191.883 71.5475,196.55 74.5,201.5C 72.9293,200.803 71.4293,200.47 70,200.5C 69.2996,196.951 67.633,193.951 65,191.5C 64.51,190.207 64.3433,188.873 64.5,187.5 Z"/></g>
<g><path style="opacity:1" fill="#3c8ec1" d="M 15.5,190.5 C 15.9805,193.078 16.9805,195.412 18.5,197.5C 19.6264,202.322 20.9598,206.989 22.5,211.5C 22.5,211.833 22.5,212.167 22.5,212.5C 22.427,214.027 23.0937,215.027 24.5,215.5C 24.2627,216.791 24.596,217.791 25.5,218.5C 25.7148,220.179 25.0481,221.179 23.5,221.5C 17.1668,211.833 12.1668,201.5 8.5,190.5C 9.14987,190.196 9.81654,189.863 10.5,189.5C 11.3333,192.5 12.1667,195.5 13,198.5C 13.414,198.957 13.914,199.291 14.5,199.5C 15.4841,196.572 15.8174,193.572 15.5,190.5 Z"/></g>
<g><path style="opacity:1" fill="#ea694c" d="M 266.5,203.5 C 265.674,206.485 264.341,209.151 262.5,211.5C 262.833,208.833 263.167,206.167 263.5,203.5C 264.5,203.5 265.5,203.5 266.5,203.5 Z"/></g>
<g><path style="opacity:1" fill="#f08a6f" d="M 223.5,203.5 C 223.655,206.716 222.655,209.383 220.5,211.5C 221.129,208.603 222.129,205.936 223.5,203.5 Z"/></g>
<g><path style="opacity:0.565" fill="#848484" d="M 117.5,209.5 C 117.573,211.027 116.906,212.027 115.5,212.5C 115.427,210.973 116.094,209.973 117.5,209.5 Z"/></g>
<g><path style="opacity:1" fill="#f4633c" d="M 262.5,211.5 C 260.913,215.683 258.579,219.35 255.5,222.5C 255.44,219.979 256.106,217.646 257.5,215.5C 257.392,214.558 257.059,213.725 256.5,213C 258.762,212.299 259.762,211.132 259.5,209.5C 260.518,210.193 261.518,210.859 262.5,211.5 Z"/></g>
<g><path style="opacity:1" fill="#aca671" d="M 22.5,212.5 C 23.9063,212.973 24.573,213.973 24.5,215.5C 23.0937,215.027 22.427,214.027 22.5,212.5 Z"/></g>
<g><path style="opacity:1" fill="#f5aa41" d="M 80.5,207.5 C 89.0304,213.931 98.0304,219.597 107.5,224.5C 106.178,224.33 105.011,224.663 104,225.5C 99.9302,222.58 95.4302,220.413 90.5,219C 90.9574,218.586 91.2907,218.086 91.5,217.5C 90.2643,216.643 88.931,215.977 87.5,215.5C 85.7859,216.609 85.1192,215.942 85.5,213.5C 84.448,213.649 83.448,213.483 82.5,213C 82.8333,212.667 83.1667,212.333 83.5,212C 81.6243,211.082 80.6243,209.582 80.5,207.5 Z"/></g>
<g><path style="opacity:1" fill="#f5b254" d="M 183.5,231.5 C 183.714,229.856 183.38,228.356 182.5,227C 183.617,225.108 185.284,224.275 187.5,224.5C 187.229,222.179 187.896,220.179 189.5,218.5C 187.905,217.566 186.239,217.566 184.5,218.5C 186.764,216.686 189.097,214.853 191.5,213C 192.5,212.333 193.5,212.333 194.5,213C 191.437,219.643 187.77,225.81 183.5,231.5 Z"/></g>
<g><path style="opacity:1" fill="#e96f4b" d="M 220.5,212.5 C 220.196,215.522 219.696,218.522 219,221.5C 218.292,222.381 217.458,223.047 216.5,223.5C 217.462,219.605 218.796,215.939 220.5,212.5 Z"/></g>
<g><path style="opacity:1" fill="#f5af52" d="M 184.5,218.5 C 181.524,222.27 177.524,224.27 172.5,224.5C 176.213,221.977 180.213,219.977 184.5,218.5 Z"/></g>
<g><path style="opacity:1" fill="#899e95" d="M 25.5,218.5 C 28.0532,224.061 31.0532,229.394 34.5,234.5C 30.4874,230.485 26.8207,226.152 23.5,221.5C 25.0481,221.179 25.7148,220.179 25.5,218.5 Z"/></g>
<g><path style="opacity:1" fill="#f0a843" d="M 108.5,224.5 C 113.75,226.146 119.083,227.479 124.5,228.5C 124.918,229.222 125.584,229.722 126.5,230C 130.821,230.499 135.154,230.666 139.5,230.5C 150.426,229.915 161.092,227.915 171.5,224.5C 171.196,225.15 170.863,225.817 170.5,226.5C 150.189,233.125 129.855,233.125 109.5,226.5C 109.137,225.817 108.804,225.15 108.5,224.5 Z"/></g>
<g><path style="opacity:0.082" fill="#fde8c0" d="M 124.5,228.5 C 129.654,229.006 134.654,229.673 139.5,230.5C 135.154,230.666 130.821,230.499 126.5,230C 125.584,229.722 124.918,229.222 124.5,228.5 Z"/></g>
<g><path style="opacity:1" fill="#e65b37" d="M 216.5,223.5 C 216.037,226.482 215.704,229.482 215.5,232.5C 214.5,232.5 213.5,232.5 212.5,232.5C 213.597,229.314 214.93,226.314 216.5,223.5 Z"/></g>
<g><path style="opacity:1" fill="#f24f29" d="M 254.5,224.5 C 252.183,228.146 249.516,231.48 246.5,234.5C 244.801,234.34 243.134,234.506 241.5,235C 242.756,235.417 243.423,236.25 243.5,237.5C 240.833,240.833 237.833,243.833 234.5,246.5C 234.5,244.833 234.5,243.167 234.5,241.5C 235.5,241.5 236.5,241.5 237.5,241.5C 237.141,239.234 237.808,237.401 239.5,236C 238.328,235.581 237.328,234.915 236.5,234C 239.218,232.232 242.051,232.066 245,233.5C 245.595,232.101 245.428,230.768 244.5,229.5C 244.808,228.692 245.308,228.025 246,227.5C 247.356,228.38 248.856,228.714 250.5,228.5C 250.5,226.833 250.5,225.167 250.5,223.5C 251.959,223.433 253.292,223.766 254.5,224.5 Z"/></g>
<g><path style="opacity:1" fill="#e5bd77" d="M 34.5,234.5 C 36.5311,235.539 37.8645,237.205 38.5,239.5C 36.457,238.421 35.1237,236.754 34.5,234.5 Z"/></g>
<g><path style="opacity:1" fill="#f47d58" d="M 246.5,234.5 C 245.833,235.833 244.833,236.833 243.5,237.5C 243.423,236.25 242.756,235.417 241.5,235C 243.134,234.506 244.801,234.34 246.5,234.5 Z"/></g>
<g><path style="opacity:1" fill="#e66c49" d="M 212.5,232.5 C 212.708,236.085 211.375,238.751 208.5,240.5C 209.326,237.515 210.659,234.849 212.5,232.5 Z"/></g>
<g><path style="opacity:1" fill="#f5b04d" d="M 181.5,234.5 C 178.542,239.126 174.876,243.126 170.5,246.5C 170.5,244.833 170.5,243.167 170.5,241.5C 171.833,241.5 173.167,241.5 174.5,241.5C 174.5,240.5 174.5,239.5 174.5,238.5C 175.5,238.5 176.5,238.5 177.5,238.5C 177.5,237.167 177.5,235.833 177.5,234.5C 178.833,234.5 180.167,234.5 181.5,234.5 Z"/></g>
<g><path style="opacity:1" fill="#f7ab43" d="M 42.5,243.5 C 45.2062,243.575 47.8728,243.908 50.5,244.5C 50.3398,246.199 50.5065,247.866 51,249.5C 52.3756,250.705 53.5423,252.038 54.5,253.5C 49.7524,251.118 45.7524,247.784 42.5,243.5 Z"/></g>
<g><path style="opacity:1" fill="#faad45" d="M 170.5,246.5 C 165.891,251.471 160.557,255.471 154.5,258.5C 154.995,256.518 155.495,254.518 156,252.5C 156.667,253.167 157.333,253.833 158,254.5C 159.049,252.893 160.549,252.227 162.5,252.5C 162.677,250.019 161.677,248.186 159.5,247C 161.544,246.952 163.544,247.452 165.5,248.5C 165.749,247.418 165.915,246.085 166,244.5C 167.11,246.037 168.61,246.703 170.5,246.5 Z"/></g>
<g><path style="opacity:1" fill="#eb623f" d="M 208.5,240.5 C 208.181,244.136 207.015,247.469 205,250.5C 203.7,252.588 201.867,253.921 199.5,254.5C 202.503,249.825 205.503,245.159 208.5,240.5 Z"/></g>
<g><path style="opacity:1" fill="#f05933" d="M 234.5,246.5 C 226.025,254.298 216.692,260.965 206.5,266.5C 206.5,265.167 206.5,263.833 206.5,262.5C 208.167,262.5 209.833,262.5 211.5,262.5C 211.5,261.5 211.5,260.5 211.5,259.5C 212.873,259.657 214.207,259.49 215.5,259C 213.096,258.492 212.429,257.325 213.5,255.5C 215.409,256.348 217.409,256.682 219.5,256.5C 219.491,254.692 219.991,253.025 221,251.5C 221.667,252.167 222.333,252.833 223,253.5C 224.049,251.893 225.549,251.227 227.5,251.5C 227.343,250.127 227.51,248.793 228,247.5C 228.718,248.451 229.551,248.617 230.5,248C 229.549,247.282 229.383,246.449 230,245.5C 231.356,246.38 232.856,246.714 234.5,246.5 Z"/></g>
<g><path style="opacity:0.976" fill="#e28063" d="M 199.5,254.5 C 199.228,257.732 197.562,259.732 194.5,260.5C 196.177,258.46 197.844,256.46 199.5,254.5 Z"/></g>
<g><path style="opacity:1" fill="#f4b659" d="M 150.5,260.5 C 132.145,270.195 112.812,273.195 92.5,269.5C 101.173,269.666 109.84,269.5 118.5,269C 129.482,266.714 140.149,263.881 150.5,260.5 Z"/></g>
<g><path style="opacity:1" fill="#ed8265" d="M 204.5,267.5 C 202.819,269.008 200.819,270.008 198.5,270.5C 198.414,269.504 198.748,268.671 199.5,268C 201.134,267.506 202.801,267.34 204.5,267.5 Z"/></g>
<g><path style="opacity:1" fill="#f07c61" d="M 195.5,271.5 C 194.22,272.931 192.553,273.598 190.5,273.5C 191.552,271.744 193.219,271.077 195.5,271.5 Z"/></g>
<g><path style="opacity:0.992" fill="#e78065" d="M 186.5,269.5 C 185.524,270.815 184.524,272.148 183.5,273.5C 185.718,274.057 188.051,274.057 190.5,273.5C 185.639,276.507 180.305,278.007 174.5,278C 178.675,275.311 182.675,272.477 186.5,269.5 Z"/></g>
</svg>
